<svg width="800" height="575" viewBox="0 0 800 575" fill="none" xmlns="http://www.w3.org/2000/svg">
<path d="M269.761 101.281H20.7885C11.2937 101.281 3.56592 93.5535 3.56592 84.0587C3.56592 74.5639 11.2937 66.8361 20.7885 66.8361H269.761C279.255 66.8361 286.983 74.5639 286.983 84.0587C286.983 93.5535 279.255 101.281 269.761 101.281ZM20.7885 68.965C12.4646 68.965 5.69479 75.7348 5.69479 84.0587C5.69479 92.3826 12.4646 99.1524 20.7885 99.1524H269.761C278.085 99.1524 284.854 92.3826 284.854 84.0587C284.854 75.7348 278.085 68.965 269.761 68.965H20.7885Z" fill="#DFDFE0"/>
<path d="M269.761 302.833H20.7885C11.5811 302.833 4.09814 295.35 4.09814 286.142C4.09814 276.935 11.5811 269.452 20.7885 269.452H269.761C278.968 269.452 286.451 276.935 286.451 286.142C286.451 295.35 278.968 302.833 269.761 302.833Z" fill="#7D938A"/>
<path d="M188.171 33.3808H16.6904C7.483 33.3808 0 25.8978 0 16.6904C0 7.483 7.483 0 16.6904 0H188.171C197.379 0 204.862 7.483 204.862 16.6904C204.862 25.8978 197.379 33.3808 188.171 33.3808Z" fill="#DFDFE0"/>
<path d="M269.761 168.639H20.7885C11.2937 168.639 3.56592 160.911 3.56592 151.416C3.56592 141.922 11.2937 134.194 20.7885 134.194H269.761C279.255 134.194 286.983 141.922 286.983 151.416C286.983 160.911 279.255 168.639 269.761 168.639ZM20.7885 136.323C12.4646 136.323 5.69479 143.092 5.69479 151.416C5.69479 159.74 12.4646 166.51 20.7885 166.51H269.761C278.085 166.51 284.854 159.74 284.854 151.416C284.854 143.092 278.085 136.323 269.761 136.323H20.7885Z" fill="#DFDFE0"/>
<path d="M269.761 236.007H20.7885C11.2937 236.007 3.56592 228.279 3.56592 218.785C3.56592 209.29 11.2937 201.562 20.7885 201.562H269.761C279.255 201.562 286.983 209.29 286.983 218.785C286.983 228.279 279.255 236.007 269.761 236.007ZM20.7885 203.691C12.4646 203.691 5.69479 210.461 5.69479 218.785C5.69479 227.109 12.4646 233.878 20.7885 233.878H269.761C278.085 233.878 284.854 227.109 284.854 218.785C284.854 210.461 278.085 203.691 269.761 203.691H20.7885Z" fill="#DFDFE0"/>
<path d="M77.4805 54.4673H12.2304C10.6726 54.4673 9.40967 55.7278 9.40967 57.2828C9.40967 58.8377 10.6726 60.0982 12.2304 60.0982H77.4805C79.0384 60.0982 80.3013 58.8377 80.3013 57.2828C80.3013 55.7278 79.0384 54.4673 77.4805 54.4673Z" fill="#DFDFE0"/>
<path d="M77.4805 123.422H12.2304C10.6726 123.422 9.40967 124.682 9.40967 126.237C9.40967 127.792 10.6726 129.053 12.2304 129.053H77.4805C79.0384 129.053 80.3013 127.792 80.3013 126.237C80.3013 124.682 79.0384 123.422 77.4805 123.422Z" fill="#DFDFE0"/>
<path d="M77.4805 192.387H12.2304C10.6726 192.387 9.40967 193.647 9.40967 195.202C9.40967 196.757 10.6726 198.017 12.2304 198.017H77.4805C79.0384 198.017 80.3013 196.757 80.3013 195.202C80.3013 193.647 79.0384 192.387 77.4805 192.387Z" fill="#DFDFE0"/>
<path d="M475.889 140.783L452.088 148.617V114.353H473.686L475.889 140.783Z" fill="#9F616A"/>
<path d="M455.037 123.837C468.135 123.837 478.752 113.219 478.752 100.121C478.752 87.0233 468.135 76.4054 455.037 76.4054C441.939 76.4054 431.321 87.0233 431.321 100.121C431.321 113.219 441.939 123.837 455.037 123.837Z" fill="#9F616A"/>
<path d="M461.551 97.7687C457.581 97.6516 454.973 93.6387 453.429 89.977C451.886 86.3153 450.3 82.1108 446.617 80.5993C443.605 79.3645 438.293 87.7204 435.919 85.4957C433.439 83.1752 435.856 71.2642 438.485 69.1246C441.114 66.9851 444.712 66.57 448.097 66.4103C456.357 66.0271 464.67 66.6977 472.77 68.3902C477.784 69.4333 482.936 71.0087 486.555 74.6278C491.132 79.2262 492.303 86.1557 492.633 92.6381C492.973 99.2695 492.59 106.21 489.365 112.011C486.14 117.812 479.391 122.091 472.919 120.612C472.27 117.099 472.93 113.49 473.185 109.914C473.43 106.348 473.175 102.495 470.993 99.6527C468.811 96.8107 464.159 95.6824 461.626 98.2051" fill="#2F2E43"/>
<path d="M490.727 105.986C493.101 104.251 495.943 102.793 498.86 103.155C502.01 103.538 504.682 106.135 505.491 109.211C506.3 112.288 505.395 115.673 503.437 118.185C501.489 120.697 498.583 122.357 495.517 123.187C493.74 123.666 491.792 123.869 490.099 123.145C487.608 122.07 486.257 118.887 487.236 116.354" fill="#2F2E43"/>
<path d="M399.973 329.124C398.387 336.916 401.293 344.037 406.445 345.027C411.597 346.017 417.058 340.493 418.633 332.701C419.303 329.593 419.197 326.378 418.324 323.313L437.942 201.168L413.406 196.549L403.933 320.556C401.921 323.068 400.569 326.006 399.973 329.135V329.124Z" fill="#9F616A"/>
<path d="M451.833 132.895H435.089C423.252 134.694 420.038 141.006 417.345 152.672C413.236 170.47 407.988 194.164 409.032 194.515C410.703 195.069 439.208 208.481 453.738 205.415L451.833 132.895Z" fill="#DFDFE0"/>
<path d="M468.023 521.958H445.733V553.583H468.023V521.958Z" fill="#9F616A"/>
<path d="M424.029 572.721C421.688 572.721 419.601 572.668 418.026 572.519C412.108 571.976 406.456 567.601 403.614 565.047C402.336 563.897 401.932 562.066 402.592 560.491C403.071 559.362 404.018 558.511 405.2 558.181L420.847 553.71L446.18 536.615L446.468 537.126C446.574 537.318 449.065 541.799 449.895 544.822C450.215 545.972 450.129 546.93 449.65 547.675C449.32 548.186 448.852 548.484 448.48 548.654C448.937 549.133 450.374 550.112 454.802 550.815C461.263 551.837 462.626 545.142 462.679 544.865L462.722 544.641L462.913 544.513C465.99 542.534 467.884 541.629 468.534 541.82C468.938 541.938 469.619 542.15 471.461 560.384C471.642 560.959 472.93 565.153 472.057 569.166C471.11 573.53 452.035 572.029 448.213 571.689C448.107 571.699 433.822 572.721 424.04 572.721H424.029Z" fill="#2F2E43"/>
<path d="M531.491 497.112L512.579 508.907L529.314 535.74L548.226 523.945L531.491 497.112Z" fill="#9F616A"/>
<path d="M506.375 568.389C503.756 568.389 501.35 568.07 499.637 567.772C497.955 567.473 496.635 566.132 496.358 564.45C496.167 563.237 496.518 562.013 497.348 561.108L508.259 549.037L520.713 521.128L521.224 521.405C521.415 521.511 525.896 523.991 528.206 526.12C529.09 526.929 529.526 527.791 529.505 528.675C529.494 529.292 529.26 529.782 529.026 530.133C529.664 530.303 531.4 530.367 535.53 528.621C541.554 526.077 539.17 519.67 539.063 519.403L538.978 519.191L539.074 518.988C540.639 515.678 541.756 513.911 542.416 513.73C542.832 513.613 543.513 513.432 554.721 527.94C555.179 528.323 558.489 531.208 559.873 535.072C561.374 539.276 544.396 548.101 540.979 549.825C540.873 549.91 523.108 562.822 515.805 566.494C512.91 567.952 509.483 568.4 506.364 568.4L506.375 568.389Z" fill="#2F2E43"/>
<path d="M484.437 257.498H422.029L416.366 315.553L441.146 530.058H473.004L460.263 406.168L511.942 518.02L540.256 498.2L499.903 393.778C499.903 393.778 514.315 302.811 502.99 280.15C491.664 257.498 484.437 257.498 484.437 257.498Z" fill="#2F2E43"/>
<path d="M515.486 261.032H416.366L446.106 132.895H489.29L515.486 261.032Z" fill="#DFDFE0"/>
<path d="M524.406 329.124C525.992 336.916 523.086 344.037 517.934 345.027C512.782 346.017 507.322 340.493 505.746 332.701C505.076 329.593 505.182 326.378 506.055 323.313L486.438 201.168L510.973 196.549L520.446 320.556C522.458 323.068 523.81 326.006 524.406 329.135V329.124Z" fill="#9F616A"/>
<path d="M472.547 132.895H489.29C501.127 134.694 504.341 141.006 507.035 152.672C511.143 170.47 516.391 194.164 515.348 194.515C513.677 195.069 485.171 208.481 470.641 205.415L472.547 132.895Z" fill="#DFDFE0"/>
</svg>
