<svg width="800" height="481" viewBox="0 0 800 481" fill="none" xmlns="http://www.w3.org/2000/svg">
<g clip-path="url(#clip0_101_138)">
<path d="M41.7393 479.925C41.6858 479.689 36.5098 456.087 47.0805 436.483C57.651 416.88 80.2148 408.235 80.4415 408.149L81.4727 407.763L81.7164 408.838C81.7699 409.073 86.9458 432.676 76.3752 452.28C65.8051 471.883 43.2409 480.528 43.0142 480.613L41.9824 481L41.7393 479.925ZM80.0585 410.386C75.5388 412.33 57.7007 420.839 48.773 437.395C39.8444 453.954 42.5382 473.535 43.3972 478.377C47.915 476.438 65.746 467.942 74.6826 451.367C83.6108 434.81 80.9179 415.231 80.0585 410.386Z" fill="#F1F1F1"/>
<path d="M68.2973 445.403C49.3015 456.832 41.9855 479.533 41.9855 479.533C41.9855 479.533 65.468 483.704 84.4638 472.275C103.46 460.846 110.776 438.146 110.776 438.146C110.776 438.146 87.2931 433.975 68.2973 445.403Z" fill="#F1F1F1"/>
<path d="M355.965 262.192C356.255 260.696 356.213 259.156 355.843 257.678C355.473 256.201 354.783 254.823 353.823 253.641C352.862 252.459 351.654 251.502 350.284 250.837C348.914 250.172 347.414 249.816 345.891 249.794L337.095 227.671L322.347 229.738L335.209 260.805C335.341 263.366 336.407 265.789 338.206 267.616C340.006 269.443 342.413 270.547 344.971 270.718C347.53 270.889 350.062 270.115 352.088 268.544C354.115 266.972 355.494 264.712 355.965 262.192Z" fill="#9F616A"/>
<path d="M328.796 254.418L324.227 243.522L295.751 189.318L297.3 89.0221L297.597 88.9826C315.818 86.5753 328.145 170.53 328.661 174.105L346.653 235.637L350.935 249.2L328.796 254.418Z" fill="#7D938A"/>
<path d="M285.043 465.909L298.888 465.908L305.473 412.506L285.04 412.507L285.043 465.909Z" fill="#9F616A"/>
<path d="M281.511 461.389L308.776 461.388H308.778C313.386 461.388 317.805 463.219 321.064 466.477C324.322 469.736 326.153 474.155 326.153 478.763V479.328L281.512 479.33L281.511 461.389Z" fill="#2F2E41"/>
<path d="M157.745 444.815L169.104 452.73L205.04 412.684L188.275 401.001L157.745 444.815Z" fill="#9F616A"/>
<path d="M157.432 439.087L179.802 454.676L179.803 454.676C183.583 457.311 186.162 461.34 186.973 465.876C187.783 470.413 186.758 475.085 184.124 478.866L183.801 479.33L147.175 453.807L157.432 439.087Z" fill="#2F2E41"/>
<path d="M277.434 453.357L276.835 353.178L268.124 290.187L251.883 345.582L251.852 345.627L192.996 431.074L170.095 419.47L170.22 419.172C171.62 415.843 204.598 337.659 213.463 337.659C214.237 337.713 215.012 337.578 215.723 337.266C216.433 336.954 217.057 336.474 217.541 335.867C220.143 332.392 218.024 325.02 218.002 324.946C215.465 314.424 221.845 310.84 223.116 310.242L226.534 239.684L226.888 239.709L319.547 246.208L315.66 334.424L307.298 450.005L307.01 450.037L277.434 453.357Z" fill="#2F2E41"/>
<path d="M320.963 261.843L320.562 261.81L220.909 253.777L221.155 220.804L226.033 134.711L226.061 134.651L245.924 91.5276L260.004 85.1516L280.547 84.0705L280.597 84.0831L299.345 88.728L318.848 228.733L320.963 261.843Z" fill="#7D938A"/>
<path d="M283.766 73.0188C296.481 66.0681 301.154 50.126 294.203 37.411C287.253 24.696 271.311 20.0231 258.596 26.9737C245.881 33.9244 241.209 49.8665 248.159 62.5815C255.11 75.2965 271.052 79.9694 283.766 73.0188Z" fill="#9F616A"/>
<path d="M244.795 56.5826V46.3597C244.795 46.3597 236.55 36.65 245.619 34.2042C245.619 34.2042 248.092 9.74559 269.527 21.1596C269.527 21.1596 299.205 16.2679 295.908 33.3889C295.908 33.3889 303.327 28.9192 300.854 40.3332L296.071 58.7192C296.071 58.7192 298.381 46.5739 290.961 44.9433L286.839 42.4974C286.839 42.4974 275.297 53.9114 257.985 40.0516C257.985 40.0516 250.565 38.2807 251.39 45.6182C252.214 52.9558 244.795 56.5826 244.795 56.5826Z" fill="#2F2E41"/>
<path d="M268.45 237.219C268.466 235.697 268.149 234.188 267.519 232.801C266.89 231.415 265.964 230.182 264.807 229.192C263.65 228.201 262.29 227.477 260.823 227.069C259.355 226.661 257.816 226.58 256.314 226.831L243.691 206.646L229.554 211.326L247.781 239.58C248.37 242.076 249.854 244.269 251.952 245.743C254.05 247.218 256.616 247.871 259.164 247.58C261.712 247.289 264.064 246.074 265.775 244.164C267.487 242.255 268.438 239.784 268.45 237.219Z" fill="#9F616A"/>
<path d="M235.845 230.857L213.007 184.488L213.027 184.376C213.119 183.862 222.312 132.817 229.343 114.054C236.419 95.1722 246.104 91.3812 246.513 91.2291L246.717 91.153L255.401 99.483L243.372 179.779L256.339 218.504L235.845 230.857Z" fill="#7D938A"/>
<path d="M800 0H755.78V44.2205H800V0Z" fill="#F1F1F1"/>
<path d="M453.932 172.075H409.712V216.296H453.932V172.075Z" fill="#F1F1F1"/>
<path d="M434.532 196.918H784.132V19.9318H434.532V196.918Z" fill="white"/>
<path d="M787.016 199.802H431.648V17.0478H787.016V199.802ZM437.416 194.034H781.248V22.8157H437.416V194.034Z" fill="#E5E5E5"/>
<path d="M745.473 82.0154H476.495V90.9356H745.473V82.0154Z" fill="#E5E5E5"/>
<path d="M745.473 103.648H476.495V112.568H745.473V103.648Z" fill="#E5E5E5"/>
<path d="M745.473 135.589H695.486V143.33H745.473V135.589Z" fill="#7D938A"/>
<path d="M367.217 480.961H0.9613C0.706348 480.961 0.461836 480.86 0.281558 480.68C0.101279 480.499 0 480.255 0 480C0 479.745 0.101279 479.5 0.281558 479.32C0.461836 479.14 0.706348 479.039 0.9613 479.039H367.217C367.472 479.039 367.716 479.14 367.897 479.32C368.077 479.5 368.178 479.745 368.178 480C368.178 480.255 368.077 480.499 367.897 480.68C367.716 480.86 367.472 480.961 367.217 480.961Z" fill="#CBCBCB"/>
</g>
<defs>
<clipPath id="clip0_101_138">
<rect width="800" height="481" fill="white"/>
</clipPath>
</defs>
</svg>
